<?xml version="1.0" standalone="no"?><!DOCTYPE svg PUBLIC "-//W3C//DTD SVG 1.1//EN" "http://www.w3.org/Graphics/SVG/1.1/DTD/svg11.dtd"><svg t="1572577705443" class="icon" viewBox="0 0 1024 1024" version="1.1" xmlns="http://www.w3.org/2000/svg" p-id="2638" xmlns:xlink="http://www.w3.org/1999/xlink" width="14" height="14"><defs><style type="text/css"></style></defs><path d="M512 512m-512 0a512 512 0 1 0 1024 0 512 512 0 1 0-1024 0Z" fill="#2A3B5B" p-id="2639"></path><path d="M803.029333 591.530667c0.853333 5.034667 0.682667 11.093333-0.64 18.218666a105.557333 105.557333 0 0 1-16.896 41.472 38.485333 38.485333 0 0 1-13.824 12.544 30.08 30.08 0 0 1-13.226666 3.84 36.394667 36.394667 0 0 1-12.501334-2.56 134.826667 134.826667 0 0 0-15.658666-3.413333 75.733333 75.733333 0 0 0-19.2-0.64 92.8 92.8 0 0 0-19.370667 4.053333 37.632 37.632 0 0 0-16.64 10.666667 61.824 61.824 0 0 0-17.621333 35.84c-1.664 13.44 0.213333 26.197333 5.674666 38.357333a23.978667 23.978667 0 0 1-1.877333 25.130667c-2.517333 3.370667-6.570667 6.826667-11.946667 10.368-5.418667 3.584-11.434667 6.826667-17.877333 9.770667-6.4 2.944-13.269333 5.248-20.437333 6.912a85.973333 85.973333 0 0 1-18.816 2.474666 16.085333 16.085333 0 0 1-10.666667-4.394666 25.344 25.344 0 0 1-6.912-9.386667h-0.64a77.653333 77.653333 0 0 0-23.509333-33.664 57.728 57.728 0 0 0-38.613334-14.165333c-14.208 0-27.093333 4.693333-38.570666 14.165333a76.373333 76.373333 0 0 0-24.192 32.981333 21.418667 21.418667 0 0 1-9.429334 11.050667 27.946667 27.946667 0 0 1-13.781333 3.413333c-5.845333 0-12.416-1.024-19.754667-3.157333a186.922667 186.922667 0 0 1-21.973333-7.850667 103.68 103.68 0 0 1-19.754667-11.050666 54.997333 54.997333 0 0 1-13.226666-12.501334 19.370667 19.370667 0 0 1-3.413334-10.368c-0.256-3.968 1.365333-9.557333 4.693334-16.64 4.608-9.685333 6.4-20.693333 5.333333-33.066666-1.024-12.373333-6.4-23.765333-16-34.261334a40.533333 40.533333 0 0 0-21.333333-12.202666 85.930667 85.930667 0 0 0-23.850667-2.218667c-8.789333 0.426667-17.749333 2.090667-26.965333 5.034667a25.770667 25.770667 0 0 1-17.621334-1.28c-4.565333-1.706667-8.874667-5.546667-12.885333-11.562667a134.826667 134.826667 0 0 1-10.666667-20.138667 125.525333 125.525333 0 0 1-7.210666-22.613333 52.778667 52.778667 0 0 1-1.28-19.2c1.28-9.216 5.461333-15.061333 12.586666-17.578667 12.544-5.077333 23.808-13.312 33.877334-24.874666 10.026667-11.52 15.061333-24.405333 15.061333-38.656 0-14.634667-5.034667-27.434667-15.061333-38.357334a93.269333 93.269333 0 0 0-33.877334-23.893333c-3.669333-1.152-6.826667-4.181333-9.301333-9.002667a31.829333 31.829333 0 0 1-3.84-14.762666c0-5.461333 0.853333-11.52 2.56-18.261334 1.621333-6.698667 3.84-13.184 6.570667-19.498666 2.730667-6.272 5.888-11.989333 9.386666-17.28a38.997333 38.997333 0 0 1 11.648-11.605334 14.634667 14.634667 0 0 1 9.728-2.517333c3.157333 0.426667 6.613333 1.28 10.368 2.517333 12.544 5.034667 25.6 6.613333 39.253334 4.693334 13.568-1.877333 25.6-7.850667 36.053333-17.877334 4.992-5.034667 8.661333-11.221333 10.965333-18.517333 2.304-7.381333 3.797333-14.592 4.394667-21.76a95.317333 95.317333 0 0 0 0-19.413333 221.909333 221.909333 0 0 0-1.536-12.586667 65.237333 65.237333 0 0 1-2.218667-8.789333 13.952 13.952 0 0 1 0.896-8.832 35.669333 35.669333 0 0 1 13.525334-15.36c6.485333-4.394667 13.482667-8.106667 21.034666-11.050667a144.64 144.64 0 0 1 21.973334-6.570667c7.082667-1.493333 12.8-2.218667 16.938666-2.218666 5.376 0 9.685333 1.749333 12.885334 5.333333 3.114667 3.584 5.290667 7.253333 6.528 11.008 4.608 11.349333 12.16 21.248 22.613333 29.866667 10.453333 8.618667 22.826667 12.928 37.034667 12.928 14.634667 0 27.605333-4.096 38.912-12.288 11.306667-8.192 19.242667-18.56 23.850666-31.146667 1.664-3.328 4.266667-6.784 7.850667-10.325333 3.498667-3.584 7.168-5.333333 11.008-5.333334 5.802667 0 12.202667 0.810667 19.114667 2.474667 6.912 1.706667 13.738667 4.010667 20.352 6.954667a76.8 76.8 0 0 1 18.56 11.306666c5.674667 4.608 10.112 9.642667 13.525333 15.104 2.133333 3.328 2.730667 6.997333 1.877333 10.965334a38.357333 38.357333 0 0 1-2.517333 8.490666 66.944 66.944 0 0 0-5.034667 38.314667c2.133333 13.397333 8.192 25.173333 18.176 35.242667 10.069333 10.026667 22.442667 15.573333 37.034667 16.64 14.677333 1.024 28.288-1.365333 40.832-7.253334a19.029333 19.029333 0 0 1 12.202667-2.474666c4.821333 0.426667 8.874667 2.304 12.245333 5.632 6.272 5.888 11.776 14.805333 16.597333 26.752 4.821333 11.946667 8.064 23.978667 9.728 36.096 0.853333 7.125333-0.298667 12.714667-3.413333 16.682666a23.722667 23.722667 0 0 1-9.813333 7.850667 73.685333 73.685333 0 0 0-33.152 24.192c-9.216 11.52-13.824 24.618667-13.824 39.253333 0 14.250667 3.84 26.752 11.562666 37.418667 7.765333 10.666667 17.92 18.346667 30.421334 22.954667 2.944 1.621333 5.418667 3.328 7.552 4.992a28.16 28.16 0 0 1 9.386666 14.464z m-291.797333 56.533333c18.816 0 36.650667-3.584 53.333333-10.666667a134.101333 134.101333 0 0 0 43.648-29.525333c12.373333-12.629333 22.058667-27.136 29.184-43.690667 7.082667-16.554667 10.666667-34.304 10.666667-53.12 0-18.858667-3.584-36.565333-10.666667-53.077333a136.448 136.448 0 0 0-72.832-72.618667c-16.682667-7.125333-34.56-10.666667-53.333333-10.666666-18.773333 0-36.522667 3.541333-53.034667 10.666666a137.088 137.088 0 0 0-72.448 72.618667c-7.125333 16.512-10.666667 34.261333-10.666666 53.077333 0 18.858667 3.541333 36.565333 10.666666 53.12 7.082667 16.512 16.853333 31.061333 29.184 43.690667 12.373333 12.544 26.794667 22.357333 43.306667 29.525333 16.512 7.082667 34.176 10.666667 52.992 10.666667z" fill="#FFFFFF" p-id="2640"></path></svg>
