<?xml version="1.0" standalone="no"?><!DOCTYPE svg PUBLIC "-//W3C//DTD SVG 1.1//EN" "http://www.w3.org/Graphics/SVG/1.1/DTD/svg11.dtd"><svg t="1568018568959" class="icon" viewBox="0 0 1024 1024" version="1.1" xmlns="http://www.w3.org/2000/svg" p-id="2256" xmlns:xlink="http://www.w3.org/1999/xlink" width="14" height="14"><defs><style type="text/css"></style></defs><path d="M512 512m-512 0a512 512 0 1 0 1024 0 512 512 0 1 0-1024 0Z" fill="#7E90A2" p-id="2257"></path><path d="M512 877.696A365.696 365.696 0 0 1 146.304 512 365.696 365.696 0 0 1 512 146.304 365.696 365.696 0 0 1 877.696 512 365.696 365.696 0 0 1 512 877.696z m0-73.130667a292.565333 292.565333 0 1 0 0-585.130666 292.565333 292.565333 0 0 0 0 585.130666zM548.565333 512h146.304v73.130667h-219.434666v-256h73.130666V512z" fill="#FFFFFF" p-id="2258"></path></svg>
